<svg width="74" height="74" viewBox="0 0 74 74" fill="none" xmlns="http://www.w3.org/2000/svg">
<path d="M36.9999 27.9319V20.0416C36.9989 19.4323 36.8176 18.8369 36.4788 18.3304C36.14 17.824 35.6588 17.4291 35.096 17.1957C34.5331 16.9623 33.9138 16.9006 33.316 17.0186C32.7181 17.1366 32.1686 17.4289 31.7367 17.8586L12.3333 37L31.7367 56.1382C32.0224 56.4255 32.362 56.6535 32.7361 56.8091C33.1102 56.9647 33.5114 57.0448 33.9166 57.0448C34.3218 57.0448 34.7229 56.9647 35.097 56.8091C35.4712 56.6535 35.8108 56.4255 36.0965 56.1382C36.6748 55.5601 36.9997 54.776 36.9999 53.9583V46.2839C45.4791 46.4935 54.7445 48.029 61.6666 58.5833V55.5C61.6666 41.2149 50.8749 29.4674 36.9999 27.9319Z" fill="#FFE15E"/>
</svg>
