<svg width="32" height="32" viewBox="0 0 32 32" fill="none" xmlns="http://www.w3.org/2000/svg">
<path d="M25.3333 25.3333H6.66667V10.6666H25.3333M21.3333 1.33331V3.99998H10.6667V1.33331H8V3.99998H6.66667C5.18667 3.99998 4 5.18665 4 6.66665V25.3333C4 26.0406 4.28095 26.7188 4.78105 27.2189C5.28115 27.719 5.95942 28 6.66667 28H25.3333C26.0406 28 26.7189 27.719 27.219 27.2189C27.719 26.7188 28 26.0406 28 25.3333V6.66665C28 5.9594 27.719 5.28113 27.219 4.78103C26.7189 4.28093 26.0406 3.99998 25.3333 3.99998H24V1.33331M22.6667 16H16V22.6666H22.6667V16Z" fill="white"/>
</svg>
