<svg width="32" height="32" viewBox="0 0 32 32" fill="none" xmlns="http://www.w3.org/2000/svg">
<path d="M16 2.66669C14.249 2.66669 12.5152 3.01156 10.8975 3.68163C9.27987 4.35169 7.81001 5.33382 6.5719 6.57193C4.07141 9.07242 2.66666 12.4638 2.66666 16C2.66666 19.5362 4.07141 22.9276 6.5719 25.4281C7.81001 26.6662 9.27987 27.6484 10.8975 28.3184C12.5152 28.9885 14.249 29.3334 16 29.3334C19.5362 29.3334 22.9276 27.9286 25.4281 25.4281C27.9286 22.9276 29.3333 19.5362 29.3333 16C29.3333 14.2491 28.9884 12.5152 28.3184 10.8976C27.6483 9.2799 26.6662 7.81004 25.4281 6.57193C24.19 5.33382 22.7201 4.35169 21.1024 3.68163C19.4848 3.01156 17.7509 2.66669 16 2.66669ZM21.6 21.6L14.6667 17.3334V9.33335H16.6667V16.2667L22.6667 19.8667L21.6 21.6Z" fill="white"/>
</svg>
