<svg width="55" height="55" viewBox="0 0 55 55" fill="none" xmlns="http://www.w3.org/2000/svg">
<path d="M32.0833 20.625C31.434 20.625 30.8901 20.405 30.4517 19.965C30.0132 19.525 29.7932 18.9811 29.7917 18.3333V9.16667C29.7917 8.51736 30.0117 7.97347 30.4517 7.535C30.8917 7.09653 31.4356 6.87653 32.0833 6.875H45.8333C46.4826 6.875 47.0273 7.095 47.4673 7.535C47.9073 7.975 48.1265 8.51889 48.125 9.16667V18.3333C48.125 18.9826 47.905 19.5273 47.465 19.9673C47.025 20.4073 46.4811 20.6265 45.8333 20.625H32.0833ZM9.16667 29.7917C8.51736 29.7917 7.97347 29.5717 7.535 29.1317C7.09653 28.6917 6.87653 28.1478 6.875 27.5V9.16667C6.875 8.51736 7.095 7.97347 7.535 7.535C7.975 7.09653 8.51889 6.87653 9.16667 6.875H22.9167C23.566 6.875 24.1106 7.095 24.5506 7.535C24.9906 7.975 25.2099 8.51889 25.2083 9.16667V27.5C25.2083 28.1493 24.9883 28.694 24.5483 29.134C24.1083 29.574 23.5644 29.7932 22.9167 29.7917H9.16667ZM32.0833 48.125C31.434 48.125 30.8901 47.905 30.4517 47.465C30.0132 47.025 29.7932 46.4811 29.7917 45.8333V27.5C29.7917 26.8507 30.0117 26.3068 30.4517 25.8683C30.8917 25.4299 31.4356 25.2099 32.0833 25.2083H45.8333C46.4826 25.2083 47.0273 25.4283 47.4673 25.8683C47.9073 26.3083 48.1265 26.8522 48.125 27.5V45.8333C48.125 46.4826 47.905 47.0273 47.465 47.4673C47.025 47.9073 46.4811 48.1265 45.8333 48.125H32.0833ZM9.16667 48.125C8.51736 48.125 7.97347 47.905 7.535 47.465C7.09653 47.025 6.87653 46.4811 6.875 45.8333V36.6667C6.875 36.0174 7.095 35.4735 7.535 35.035C7.975 34.5965 8.51889 34.3765 9.16667 34.375H22.9167C23.566 34.375 24.1106 34.595 24.5506 35.035C24.9906 35.475 25.2099 36.0189 25.2083 36.6667V45.8333C25.2083 46.4826 24.9883 47.0273 24.5483 47.4673C24.1083 47.9073 23.5644 48.1265 22.9167 48.125H9.16667Z" fill="black"/>
</svg>
