<svg width="55" height="55" viewBox="0 0 55 55" fill="none" xmlns="http://www.w3.org/2000/svg">
<path fill-rule="evenodd" clip-rule="evenodd" d="M8.59375 6.875C8.13791 6.875 7.70074 7.05608 7.37841 7.37841C7.05608 7.70074 6.875 8.13791 6.875 8.59375V46.4062C6.875 46.8621 7.05608 47.2993 7.37841 47.6216C7.70074 47.9439 8.13791 48.125 8.59375 48.125H46.4062C46.8621 48.125 47.2993 47.9439 47.6216 47.6216C47.9439 47.2993 48.125 46.8621 48.125 46.4062V8.59375C48.125 8.13791 47.9439 7.70074 47.6216 7.37841C47.2993 7.05608 46.8621 6.875 46.4062 6.875H8.59375ZM13.75 20.625H34.375V17.1875H13.75V20.625ZM37.8125 20.625H41.25V17.1875H37.8125V20.625ZM34.375 29.2188H13.75V25.7812H34.375V29.2188ZM37.8125 29.2188H41.25V25.7812H37.8125V29.2188ZM34.375 37.8125H13.75V34.375H34.375V37.8125ZM37.8125 37.8125H41.25V34.375H37.8125V37.8125Z" fill="white"/>
</svg>
