<svg width="32" height="32" viewBox="0 0 32 32" fill="none" xmlns="http://www.w3.org/2000/svg">
<path d="M16 15.3333C15.1159 15.3333 14.2681 14.9821 13.643 14.357C13.0178 13.7319 12.6667 12.884 12.6667 12C12.6667 11.1159 13.0178 10.2681 13.643 9.64297C14.2681 9.01785 15.1159 8.66666 16 8.66666C16.884 8.66666 17.7319 9.01785 18.357 9.64297C18.9821 10.2681 19.3333 11.1159 19.3333 12C19.3333 12.4377 19.2471 12.8712 19.0796 13.2756C18.9121 13.68 18.6665 14.0475 18.357 14.357C18.0475 14.6665 17.68 14.9121 17.2756 15.0796C16.8712 15.2471 16.4377 15.3333 16 15.3333ZM16 2.66666C13.5246 2.66666 11.1507 3.64999 9.40033 5.40033C7.64999 7.15067 6.66666 9.52464 6.66666 12C6.66666 19 16 29.3333 16 29.3333C16 29.3333 25.3333 19 25.3333 12C25.3333 9.52464 24.35 7.15067 22.5997 5.40033C20.8493 3.64999 18.4753 2.66666 16 2.66666Z" fill="white"/>
</svg>
