<svg width="55" height="55" viewBox="0 0 55 55" fill="none" xmlns="http://www.w3.org/2000/svg">
<path d="M25.4605 9.27896C26.0646 9.2121 26.6174 8.90799 26.9974 8.43352C27.3773 7.95906 27.5531 7.3531 27.4863 6.74896C27.4194 6.14482 27.1153 5.59198 26.6409 5.21206C26.1664 4.83215 25.5604 4.65627 24.9563 4.72313C13.4934 5.99042 4.58337 15.7025 4.58337 27.5C4.58337 40.1569 14.8432 50.4167 27.5 50.4167C39.293 50.4167 49.0028 41.509 50.2769 30.0552C50.3441 29.4511 50.1685 28.845 49.7888 28.3703C49.4091 27.8956 48.8564 27.5912 48.2522 27.5241C47.6481 27.4569 47.042 27.6325 46.5673 28.0122C46.0926 28.3919 45.7882 28.9446 45.7211 29.5488C45.1933 34.2011 42.9057 38.4752 39.3274 41.4948C35.7491 44.5145 31.1511 46.0508 26.4763 45.7888C21.8015 45.5268 17.404 43.4863 14.1855 40.0857C10.967 36.6852 9.17134 32.1822 9.16671 27.5C9.16634 22.9906 10.8279 18.6392 13.8338 15.2778C16.8397 11.9163 20.979 9.78063 25.4605 9.27896ZM33.8411 5.47938C33.2619 5.33324 32.6485 5.41903 32.1317 5.71847C31.6148 6.0179 31.2353 6.50731 31.074 7.08244C30.9126 7.65758 30.9822 8.27298 31.2679 8.79755C31.5537 9.32212 32.0329 9.71441 32.6036 9.89083C33.2636 10.0772 33.9068 10.2988 34.5332 10.5554C35.096 10.7855 35.7271 10.7825 36.2878 10.5472C36.8484 10.3119 37.2926 9.86354 37.5226 9.30073C37.7527 8.73792 37.7497 8.10677 37.5144 7.54614C37.2791 6.9855 36.8308 6.5413 36.268 6.31125C35.4752 5.98886 34.6649 5.71113 33.8411 5.47938ZM39.7582 10.7502C39.9618 10.5286 40.207 10.3492 40.4799 10.2223C40.7528 10.0954 41.0481 10.0236 41.3488 10.0108C41.6494 9.99801 41.9497 10.0446 42.2324 10.1479C42.5151 10.2512 42.7747 10.4091 42.9963 10.6127C43.4821 11.0573 43.9473 11.5217 44.3919 12.006C44.8028 12.454 45.0189 13.0468 44.9927 13.6541C44.9664 14.2613 44.7001 14.8333 44.2521 15.2442C43.8042 15.655 43.2114 15.8711 42.6041 15.8449C41.9968 15.8187 41.4249 15.5523 41.014 15.1044C40.6589 14.7173 40.2873 14.3458 39.9002 13.9906C39.6783 13.7874 39.4985 13.5423 39.3712 13.2696C39.244 12.9968 39.1717 12.7017 39.1585 12.401C39.1453 12.1003 39.1914 11.7999 39.2943 11.5171C39.3972 11.2342 39.5549 10.9721 39.7582 10.7502ZM25.2084 13.75C25.8162 13.75 26.3991 13.9914 26.8288 14.4212C27.2586 14.851 27.5 15.4339 27.5 16.0417V27.5H34.375C34.9828 27.5 35.5657 27.7414 35.9955 28.1712C36.4253 28.601 36.6667 29.1839 36.6667 29.7917C36.6667 30.3995 36.4253 30.9824 35.9955 31.4121C35.5657 31.8419 34.9828 32.0833 34.375 32.0833H25.2084C24.6006 32.0833 24.0177 31.8419 23.5879 31.4121C23.1582 30.9824 22.9167 30.3995 22.9167 29.7917V16.0417C22.9167 15.4339 23.1582 14.851 23.5879 14.4212C24.0177 13.9914 24.6006 13.75 25.2084 13.75ZM45.6959 17.4694C46.2584 17.2394 46.8892 17.2422 47.4496 17.4773C48.01 17.7124 48.4541 18.1604 48.6842 18.7229C49.0085 19.5186 49.2877 20.3319 49.5207 21.159C49.6111 21.4513 49.642 21.7588 49.6116 22.0634C49.5812 22.3679 49.4901 22.6632 49.3438 22.932C49.1974 23.2007 48.9987 23.4374 48.7593 23.6281C48.52 23.8188 48.2449 23.9597 47.9502 24.0423C47.6556 24.125 47.3473 24.1478 47.0437 24.1094C46.7401 24.071 46.4473 23.9722 46.1825 23.8188C45.9177 23.6654 45.6863 23.4605 45.5019 23.2162C45.3176 22.9719 45.1841 22.6932 45.1092 22.3965C44.9233 21.7383 44.7006 21.091 44.4423 20.4577C44.2122 19.8955 44.2147 19.2649 44.4494 18.7045C44.684 18.1442 45.1315 17.6999 45.6936 17.4694" fill="black"/>
</svg>
