<svg width="55" height="55" viewBox="0 0 55 55" fill="none" xmlns="http://www.w3.org/2000/svg">
<path d="M25.4604 9.27894C26.0646 9.21209 26.6174 8.90798 26.9973 8.43351C27.3772 7.95904 27.5531 7.35309 27.4863 6.74894C27.4194 6.1448 27.1153 5.59197 26.6408 5.21205C26.1663 4.83213 25.5604 4.65626 24.9563 4.72311C13.4933 5.9904 4.58333 15.7025 4.58333 27.5C4.58333 40.1569 14.8431 50.4167 27.5 50.4167C39.2929 50.4167 49.0027 41.5089 50.2769 30.0552C50.344 29.4511 50.1685 28.845 49.7887 28.3703C49.409 27.8956 48.8563 27.5912 48.2522 27.524C47.648 27.4569 47.042 27.6325 46.5673 28.0122C46.0926 28.3919 45.7882 28.9446 45.721 29.5487C45.1932 34.2011 42.9057 38.4752 39.3273 41.4948C35.749 44.5145 31.1511 46.0508 26.4762 45.7888C21.8014 45.5268 17.4039 43.4863 14.1854 40.0857C10.9669 36.6851 9.17129 32.1821 9.16667 27.5C9.16629 22.9906 10.8279 18.6392 13.8338 15.2778C16.8397 11.9163 20.979 9.78062 25.4604 9.27894ZM33.841 5.47936C33.2619 5.33323 32.6485 5.41902 32.1316 5.71845C31.6148 6.01788 31.2353 6.50729 31.0739 7.08243C30.9126 7.65756 30.9822 8.27296 31.2679 8.79754C31.5536 9.32211 32.0329 9.71439 32.6035 9.89082C33.2635 10.0772 33.9067 10.2987 34.5331 10.5554C35.0959 10.7855 35.7271 10.7825 36.2877 10.5472C36.8484 10.3119 37.2926 9.86353 37.5226 9.30072C37.7527 8.7379 37.7497 8.10676 37.5144 7.54612C37.2791 6.98549 36.8307 6.54128 36.2679 6.31124C35.4751 5.98885 34.6649 5.71112 33.841 5.47936ZM39.7581 10.7502C39.9617 10.5285 40.207 10.3492 40.4799 10.2223C40.7528 10.0954 41.048 10.0235 41.3487 10.0108C41.6494 9.998 41.9497 10.0446 42.2323 10.1479C42.515 10.2511 42.7746 10.4091 42.9962 10.6127C43.4821 11.0573 43.9473 11.5217 44.3919 12.006C44.8027 12.454 45.0188 13.0468 44.9926 13.654C44.9664 14.2613 44.7 14.8333 44.2521 15.2442C43.8041 15.655 43.2113 15.8711 42.6041 15.8449C41.9968 15.8187 41.4248 15.5523 41.014 15.1044C40.6588 14.7173 40.2872 14.3457 39.9002 13.9906C39.6782 13.7873 39.4985 13.5423 39.3712 13.2696C39.2439 12.9968 39.1716 12.7017 39.1584 12.401C39.1452 12.1003 39.1914 11.7999 39.2943 11.5171C39.3972 11.2342 39.5548 10.9721 39.7581 10.7502ZM25.2083 13.75C25.8161 13.75 26.399 13.9914 26.8288 14.4212C27.2586 14.851 27.5 15.4339 27.5 16.0417V27.5H34.375C34.9828 27.5 35.5657 27.7414 35.9955 28.1712C36.4252 28.601 36.6667 29.1839 36.6667 29.7917C36.6667 30.3994 36.4252 30.9823 35.9955 31.4121C35.5657 31.8419 34.9828 32.0833 34.375 32.0833H25.2083C24.6005 32.0833 24.0177 31.8419 23.5879 31.4121C23.1581 30.9823 22.9167 30.3994 22.9167 29.7917V16.0417C22.9167 15.4339 23.1581 14.851 23.5879 14.4212C24.0177 13.9914 24.6005 13.75 25.2083 13.75ZM45.6958 17.4694C46.2583 17.2394 46.8892 17.2422 47.4496 17.4773C48.01 17.7124 48.4541 18.1604 48.6842 18.7229C49.0084 19.5186 49.2877 20.3319 49.5206 21.1589C49.611 21.4513 49.6419 21.7588 49.6115 22.0633C49.5812 22.3679 49.4901 22.6632 49.3437 22.932C49.1973 23.2007 48.9986 23.4374 48.7593 23.6281C48.5199 23.8188 48.2448 23.9597 47.9502 24.0423C47.6555 24.125 47.3473 24.1478 47.0437 24.1094C46.7401 24.071 46.4472 23.9722 46.1824 23.8188C45.9176 23.6653 45.6862 23.4605 45.5019 23.2162C45.3176 22.9719 45.184 22.6932 45.1092 22.3964C44.9232 21.7383 44.7006 21.091 44.4423 20.4577C44.2122 19.8955 44.2147 19.2649 44.4493 18.7045C44.684 18.1442 45.1315 17.6999 45.6935 17.4694" fill="white"/>
</svg>
