<svg width="37" height="37" viewBox="0 0 37 37" fill="none" xmlns="http://www.w3.org/2000/svg">
<path fill-rule="evenodd" clip-rule="evenodd" d="M28.2172 16.1234C28.2172 17.7116 27.9043 19.2842 27.2966 20.7515C26.6888 22.2188 25.798 23.552 24.675 24.675C23.552 25.798 22.2188 26.6888 20.7515 27.2966C19.2842 27.9043 17.7116 28.2172 16.1234 28.2172C14.5352 28.2172 12.9626 27.9043 11.4953 27.2966C10.0281 26.6888 8.69485 25.798 7.57184 24.675C6.44883 23.552 5.55801 22.2188 4.95024 20.7515C4.34248 19.2842 4.02966 17.7116 4.02966 16.1234C4.02966 12.9159 5.30382 9.83986 7.57184 7.57184C9.83986 5.30382 12.9159 4.02966 16.1234 4.02966C19.3309 4.02966 22.407 5.30382 24.675 7.57184C26.943 9.83986 28.2172 12.9159 28.2172 16.1234ZM26.0134 28.8622C22.7733 31.3776 18.6963 32.5637 14.6125 32.1789C10.5287 31.7942 6.74496 29.8675 4.03168 26.7912C1.31839 23.7148 -0.120508 19.7201 0.00791192 15.6202C0.136332 11.5203 1.82241 7.62341 4.72291 4.72291C7.62341 1.82241 11.5203 0.136332 15.6202 0.00791192C19.7201 -0.120508 23.7148 1.31839 26.7912 4.03168C29.8675 6.74496 31.7942 10.5287 32.1789 14.6125C32.5637 18.6963 31.3776 22.7733 28.8622 26.0134L36.3603 33.5115C36.5583 33.6961 36.7172 33.9186 36.8273 34.1658C36.9375 34.4131 36.9967 34.68 37.0015 34.9506C37.0063 35.2213 36.9565 35.4901 36.8551 35.7411C36.7537 35.9921 36.6029 36.2201 36.4114 36.4114C36.2201 36.6029 35.9921 36.7537 35.7411 36.8551C35.4901 36.9565 35.2213 37.0063 34.9506 37.0015C34.68 36.9967 34.4131 36.9375 34.1658 36.8273C33.9186 36.7172 33.6961 36.5583 33.5115 36.3603L26.0134 28.8622Z" fill="black"/>
</svg>
