<svg width="55" height="55" viewBox="0 0 55 55" fill="none" xmlns="http://www.w3.org/2000/svg">
<g clip-path="url(#clip0_75_34)">
<path d="M32.0833 18.3333H10.6944C10.2893 18.3333 9.90065 18.1724 9.61414 17.8858C9.32763 17.5993 9.16666 17.2107 9.16666 16.8055V10.6944C9.16666 10.2892 9.32763 9.90065 9.61414 9.61413C9.90065 9.32762 10.2893 9.16666 10.6944 9.16666H32.0833C32.4885 9.16666 32.8771 9.32762 33.1636 9.61413C33.4501 9.90065 33.6111 10.2892 33.6111 10.6944V16.8055C33.6111 17.2107 33.4501 17.5993 33.1636 17.8858C32.8771 18.1724 32.4885 18.3333 32.0833 18.3333ZM12.2222 15.2778H30.5556V12.1305H12.2222V15.2778Z" fill="white"/>
<path d="M32.0833 21.5111H10.6944C10.2893 21.5111 9.90065 21.6721 9.61414 21.9586C9.32763 22.2451 9.16666 22.6337 9.16666 23.0389V29.0278C9.16666 29.433 9.32763 29.8216 9.61414 30.1081C9.90065 30.3946 10.2893 30.5556 10.6944 30.5556H28.05L33.6111 24.9028V23.0389C33.6111 22.6337 33.4501 22.2451 33.1636 21.9586C32.8771 21.6721 32.4885 21.5111 32.0833 21.5111ZM30.5556 27.5H12.2222V24.4444H30.5556V27.5Z" fill="white"/>
<path d="M16.8972 48.1403V48.0486L17.3861 45.925H6.11111V6.1111H36.6667V21.7708L39.7222 18.8833V4.58332C39.7222 4.17813 39.5613 3.78953 39.2747 3.50302C38.9882 3.2165 38.5996 3.05554 38.1944 3.05554H4.58334C4.17814 3.05554 3.78955 3.2165 3.50303 3.50302C3.21652 3.78953 3.05556 4.17813 3.05556 4.58332V47.3611C3.05556 47.7663 3.21652 48.1549 3.50303 48.4414C3.78955 48.7279 4.17814 48.8889 4.58334 48.8889H16.8056C16.8179 48.6374 16.8486 48.3873 16.8972 48.1403Z" fill="white"/>
<path d="M33.6111 29.2875L32.4194 30.4944C32.7151 30.4335 32.9861 30.2863 33.1981 30.0715C33.4102 29.8567 33.5539 29.5839 33.6111 29.2875Z" fill="white"/>
<path d="M9.16666 41.1583C9.16666 41.5635 9.32763 41.9521 9.61414 42.2386C9.90065 42.5252 10.2893 42.6861 10.6944 42.6861H18.0889L18.5472 40.7L18.7458 39.8597V39.7833H12.2222V36.6667H21.9083L24.9639 33.6111H10.6944C10.2893 33.6111 9.90065 33.7721 9.61414 34.0586C9.32763 34.3451 9.16666 34.7337 9.16666 35.1389V41.1583Z" fill="white"/>
<path d="M51.1653 25.4681L46.0167 20.3194C45.7882 20.0903 45.5167 19.9085 45.2179 19.7845C44.919 19.6605 44.5986 19.5966 44.275 19.5966C43.9514 19.5966 43.631 19.6605 43.3321 19.7845C43.0333 19.9085 42.7618 20.0903 42.5333 20.3194L21.5875 41.3875L19.8611 48.7361C19.7965 49.0531 19.795 49.3798 19.8568 49.6974C19.9186 50.015 20.0425 50.3173 20.2213 50.5869C20.4001 50.8565 20.6304 51.0883 20.8989 51.2688C21.1674 51.4493 21.4689 51.5751 21.7861 51.6389C21.9436 51.6542 22.1022 51.6542 22.2597 51.6389C22.447 51.6681 22.6377 51.6681 22.825 51.6389L30.2347 50.0042L51.1653 29.0278C51.3939 28.8006 51.5754 28.5304 51.6992 28.2328C51.8231 27.9352 51.8868 27.6161 51.8868 27.2937C51.8868 26.9714 51.8231 26.6523 51.6992 26.3547C51.5754 26.0571 51.3939 25.7869 51.1653 25.5597V25.4681ZM28.6764 47.2236L23.0847 48.4611L24.4444 42.9153L40.15 27.0417L44.4583 31.35L28.6764 47.2236ZM46.1847 29.6236L41.8764 25.3153L44.3056 22.9167L48.6444 27.2555L46.1847 29.6236Z" fill="white"/>
</g>
<defs>
<clipPath id="clip0_75_34">
<rect width="55" height="55" fill="white"/>
</clipPath>
</defs>
</svg>
