<svg width="55" height="55" viewBox="0 0 55 55" fill="none" xmlns="http://www.w3.org/2000/svg">
<g clip-path="url(#clip0_120_31)">
<path d="M32.0833 18.3333H10.6944C10.2892 18.3333 9.90062 18.1724 9.6141 17.8859C9.32759 17.5993 9.16663 17.2107 9.16663 16.8056V10.6944C9.16663 10.2893 9.32759 9.90065 9.6141 9.61414C9.90062 9.32763 10.2892 9.16666 10.6944 9.16666H32.0833C32.4885 9.16666 32.8771 9.32763 33.1636 9.61414C33.4501 9.90065 33.6111 10.2893 33.6111 10.6944V16.8056C33.6111 17.2107 33.4501 17.5993 33.1636 17.8859C32.8771 18.1724 32.4885 18.3333 32.0833 18.3333ZM12.2222 15.2778H30.5555V12.1306H12.2222V15.2778Z" fill="black"/>
<path d="M32.0833 21.5111H10.6944C10.2892 21.5111 9.90062 21.6721 9.6141 21.9586C9.32759 22.2451 9.16663 22.6337 9.16663 23.0389V29.0278C9.16663 29.433 9.32759 29.8216 9.6141 30.1081C9.90062 30.3946 10.2892 30.5556 10.6944 30.5556H28.05L33.6111 24.9028V23.0389C33.6111 22.6337 33.4501 22.2451 33.1636 21.9586C32.8771 21.6721 32.4885 21.5111 32.0833 21.5111ZM30.5555 27.5H12.2222V24.4444H30.5555V27.5Z" fill="black"/>
<path d="M16.8972 48.1403V48.0486L17.3861 45.925H6.1111V6.11111H36.6667V21.7708L39.7222 18.8833V4.58334C39.7222 4.17814 39.5612 3.78955 39.2747 3.50303C38.9882 3.21652 38.5996 3.05556 38.1944 3.05556H4.58332C4.17813 3.05556 3.78953 3.21652 3.50302 3.50303C3.2165 3.78955 3.05554 4.17814 3.05554 4.58334V47.3611C3.05554 47.7663 3.2165 48.1549 3.50302 48.4414C3.78953 48.7279 4.17813 48.8889 4.58332 48.8889H16.8055C16.8179 48.6375 16.8486 48.3873 16.8972 48.1403Z" fill="black"/>
<path d="M33.6111 29.2875L32.4194 30.4944C32.7151 30.4335 32.9861 30.2863 33.1981 30.0715C33.4102 29.8567 33.5539 29.5839 33.6111 29.2875Z" fill="black"/>
<path d="M9.16663 41.1583C9.16663 41.5635 9.32759 41.9521 9.6141 42.2386C9.90062 42.5252 10.2892 42.6861 10.6944 42.6861H18.0888L18.5472 40.7L18.7458 39.8597V39.7833H12.2222V36.6667H21.9083L24.9638 33.6111H10.6944C10.2892 33.6111 9.90062 33.7721 9.6141 34.0586C9.32759 34.3451 9.16663 34.7337 9.16663 35.1389V41.1583Z" fill="black"/>
<path d="M51.1653 25.4681L46.0167 20.3194C45.7882 20.0903 45.5167 19.9085 45.2178 19.7845C44.919 19.6605 44.5986 19.5966 44.275 19.5966C43.9514 19.5966 43.631 19.6605 43.3321 19.7845C43.0333 19.9085 42.7618 20.0903 42.5333 20.3194L21.5875 41.3875L19.8611 48.7361C19.7965 49.0531 19.795 49.3798 19.8568 49.6974C19.9186 50.015 20.0425 50.3173 20.2213 50.5869C20.4001 50.8566 20.6304 51.0883 20.8989 51.2688C21.1674 51.4493 21.4689 51.5751 21.7861 51.6389C21.9436 51.6542 22.1022 51.6542 22.2597 51.6389C22.447 51.6681 22.6377 51.6681 22.825 51.6389L30.2347 50.0042L51.1653 29.0278C51.3939 28.8006 51.5754 28.5304 51.6992 28.2328C51.823 27.9352 51.8868 27.6161 51.8868 27.2938C51.8868 26.9714 51.823 26.6523 51.6992 26.3547C51.5754 26.0571 51.3939 25.7869 51.1653 25.5597V25.4681ZM28.6764 47.2236L23.0847 48.4611L24.4444 42.9153L40.15 27.0417L44.4583 31.35L28.6764 47.2236ZM46.1847 29.6236L41.8764 25.3153L44.3055 22.9167L48.6444 27.2556L46.1847 29.6236Z" fill="black"/>
</g>
<defs>
<clipPath id="clip0_120_31">
<rect width="55" height="55" fill="white"/>
</clipPath>
</defs>
</svg>
